<mxfile host="app.diagrams.net" modified="2022-05-24T06:15:22.887Z" agent="5.0 (Macintosh; Intel Mac OS X 10_15_7) AppleWebKit/605.1.15 (KHTML, like Gecko) Version/15.3 Safari/605.1.15" etag="B32SbF_EEbaGdN3V9EjP" version="18.0.7" type="github">
  <diagram id="C5RBs43oDa-KdzZeNtuy" name="Page-1">
    <mxGraphModel dx="1351" dy="821" grid="1" gridSize="10" guides="1" tooltips="1" connect="1" arrows="1" fold="1" page="1" pageScale="1" pageWidth="827" pageHeight="1169" math="0" shadow="0">
      <root>
        <mxCell id="WIyWlLk6GJQsqaUBKTNV-0" />
        <mxCell id="WIyWlLk6GJQsqaUBKTNV-1" parent="WIyWlLk6GJQsqaUBKTNV-0" />
        <mxCell id="gckPt2nkg22Qsa5NMjUD-1" value="" style="edgeStyle=orthogonalEdgeStyle;rounded=0;orthogonalLoop=1;jettySize=auto;html=1;" edge="1" parent="WIyWlLk6GJQsqaUBKTNV-1" source="WIyWlLk6GJQsqaUBKTNV-3" target="gckPt2nkg22Qsa5NMjUD-0">
          <mxGeometry relative="1" as="geometry" />
        </mxCell>
        <mxCell id="WIyWlLk6GJQsqaUBKTNV-3" value="初始化笔画组件" style="rounded=1;whiteSpace=wrap;html=1;fontSize=12;glass=0;strokeWidth=1;shadow=0;" parent="WIyWlLk6GJQsqaUBKTNV-1" vertex="1">
          <mxGeometry x="160" y="80" width="120" height="40" as="geometry" />
        </mxCell>
        <mxCell id="gckPt2nkg22Qsa5NMjUD-3" value="" style="edgeStyle=orthogonalEdgeStyle;rounded=0;orthogonalLoop=1;jettySize=auto;html=1;" edge="1" parent="WIyWlLk6GJQsqaUBKTNV-1" source="gckPt2nkg22Qsa5NMjUD-0" target="gckPt2nkg22Qsa5NMjUD-2">
          <mxGeometry relative="1" as="geometry" />
        </mxCell>
        <mxCell id="gckPt2nkg22Qsa5NMjUD-0" value="设置起点和终点" style="rounded=1;whiteSpace=wrap;html=1;fontSize=12;glass=0;strokeWidth=1;shadow=0;" vertex="1" parent="WIyWlLk6GJQsqaUBKTNV-1">
          <mxGeometry x="310" y="80" width="120" height="40" as="geometry" />
        </mxCell>
        <mxCell id="gckPt2nkg22Qsa5NMjUD-2" value="开始拖拽，获取当前手指点curPoint" style="rounded=1;whiteSpace=wrap;html=1;fontSize=12;glass=0;strokeWidth=1;shadow=0;" vertex="1" parent="WIyWlLk6GJQsqaUBKTNV-1">
          <mxGeometry x="470" y="80" width="120" height="40" as="geometry" />
        </mxCell>
        <mxCell id="gckPt2nkg22Qsa5NMjUD-21" style="edgeStyle=orthogonalEdgeStyle;rounded=0;orthogonalLoop=1;jettySize=auto;html=1;entryX=0.5;entryY=0;entryDx=0;entryDy=0;" edge="1" parent="WIyWlLk6GJQsqaUBKTNV-1" source="gckPt2nkg22Qsa5NMjUD-4" target="gckPt2nkg22Qsa5NMjUD-9">
          <mxGeometry relative="1" as="geometry">
            <Array as="points">
              <mxPoint x="680" y="150" />
              <mxPoint x="220" y="150" />
            </Array>
          </mxGeometry>
        </mxCell>
        <mxCell id="gckPt2nkg22Qsa5NMjUD-4" value="Update 运行期间内实时更新" style="rounded=1;whiteSpace=wrap;html=1;fontSize=12;glass=0;strokeWidth=1;shadow=0;" vertex="1" parent="WIyWlLk6GJQsqaUBKTNV-1">
          <mxGeometry x="620" y="80" width="120" height="40" as="geometry" />
        </mxCell>
        <mxCell id="gckPt2nkg22Qsa5NMjUD-32" value="" style="edgeStyle=orthogonalEdgeStyle;rounded=0;orthogonalLoop=1;jettySize=auto;html=1;" edge="1" parent="WIyWlLk6GJQsqaUBKTNV-1" source="gckPt2nkg22Qsa5NMjUD-9" target="gckPt2nkg22Qsa5NMjUD-22">
          <mxGeometry relative="1" as="geometry" />
        </mxCell>
        <mxCell id="gckPt2nkg22Qsa5NMjUD-9" value="根据curPoint计算出起点的夹角，计算起点和终点距离distance，并计算curPoint在起点和终点连线上的投影点p" style="rounded=1;whiteSpace=wrap;html=1;fontSize=12;glass=0;strokeWidth=1;shadow=0;" vertex="1" parent="WIyWlLk6GJQsqaUBKTNV-1">
          <mxGeometry x="103.75" y="180" width="232.5" height="70" as="geometry" />
        </mxCell>
        <mxCell id="gckPt2nkg22Qsa5NMjUD-40" value="" style="edgeStyle=orthogonalEdgeStyle;rounded=0;orthogonalLoop=1;jettySize=auto;html=1;" edge="1" parent="WIyWlLk6GJQsqaUBKTNV-1" source="gckPt2nkg22Qsa5NMjUD-22" target="gckPt2nkg22Qsa5NMjUD-37">
          <mxGeometry relative="1" as="geometry" />
        </mxCell>
        <mxCell id="gckPt2nkg22Qsa5NMjUD-41" value="是" style="edgeLabel;html=1;align=center;verticalAlign=middle;resizable=0;points=[];" vertex="1" connectable="0" parent="gckPt2nkg22Qsa5NMjUD-40">
          <mxGeometry x="-0.55" relative="1" as="geometry">
            <mxPoint as="offset" />
          </mxGeometry>
        </mxCell>
        <mxCell id="gckPt2nkg22Qsa5NMjUD-22" value="夹角小于特定值" style="rhombus;whiteSpace=wrap;html=1;" vertex="1" parent="WIyWlLk6GJQsqaUBKTNV-1">
          <mxGeometry x="165" y="280" width="110" height="70" as="geometry" />
        </mxCell>
        <mxCell id="gckPt2nkg22Qsa5NMjUD-75" style="edgeStyle=orthogonalEdgeStyle;rounded=0;orthogonalLoop=1;jettySize=auto;html=1;entryX=0;entryY=0.5;entryDx=0;entryDy=0;" edge="1" parent="WIyWlLk6GJQsqaUBKTNV-1" source="gckPt2nkg22Qsa5NMjUD-24" target="gckPt2nkg22Qsa5NMjUD-22">
          <mxGeometry relative="1" as="geometry">
            <mxPoint x="60" y="320" as="targetPoint" />
            <Array as="points">
              <mxPoint x="20" y="710" />
              <mxPoint x="20" y="315" />
            </Array>
          </mxGeometry>
        </mxCell>
        <mxCell id="gckPt2nkg22Qsa5NMjUD-24" value="设置移动为最大步长，并计算出movePos" style="rounded=1;whiteSpace=wrap;html=1;" vertex="1" parent="WIyWlLk6GJQsqaUBKTNV-1">
          <mxGeometry x="160" y="685" width="120" height="60" as="geometry" />
        </mxCell>
        <mxCell id="gckPt2nkg22Qsa5NMjUD-44" value="" style="edgeStyle=orthogonalEdgeStyle;rounded=0;orthogonalLoop=1;jettySize=auto;html=1;" edge="1" parent="WIyWlLk6GJQsqaUBKTNV-1" source="gckPt2nkg22Qsa5NMjUD-30" target="gckPt2nkg22Qsa5NMjUD-24">
          <mxGeometry relative="1" as="geometry" />
        </mxCell>
        <mxCell id="gckPt2nkg22Qsa5NMjUD-45" value="是" style="edgeLabel;html=1;align=center;verticalAlign=middle;resizable=0;points=[];" vertex="1" connectable="0" parent="gckPt2nkg22Qsa5NMjUD-44">
          <mxGeometry x="-0.5" y="-1" relative="1" as="geometry">
            <mxPoint as="offset" />
          </mxGeometry>
        </mxCell>
        <mxCell id="gckPt2nkg22Qsa5NMjUD-67" style="edgeStyle=orthogonalEdgeStyle;rounded=0;orthogonalLoop=1;jettySize=auto;html=1;entryX=0;entryY=0.5;entryDx=0;entryDy=0;" edge="1" parent="WIyWlLk6GJQsqaUBKTNV-1" source="gckPt2nkg22Qsa5NMjUD-30" target="gckPt2nkg22Qsa5NMjUD-66">
          <mxGeometry relative="1" as="geometry" />
        </mxCell>
        <mxCell id="gckPt2nkg22Qsa5NMjUD-68" value="否" style="edgeLabel;html=1;align=center;verticalAlign=middle;resizable=0;points=[];" vertex="1" connectable="0" parent="gckPt2nkg22Qsa5NMjUD-67">
          <mxGeometry x="-0.1727" y="1" relative="1" as="geometry">
            <mxPoint as="offset" />
          </mxGeometry>
        </mxCell>
        <mxCell id="gckPt2nkg22Qsa5NMjUD-30" value="判断移动的距离，&lt;br&gt;是否超过最大步长" style="rhombus;whiteSpace=wrap;html=1;" vertex="1" parent="WIyWlLk6GJQsqaUBKTNV-1">
          <mxGeometry x="150" y="460" width="140" height="110" as="geometry" />
        </mxCell>
        <mxCell id="gckPt2nkg22Qsa5NMjUD-43" value="" style="edgeStyle=orthogonalEdgeStyle;rounded=0;orthogonalLoop=1;jettySize=auto;html=1;" edge="1" parent="WIyWlLk6GJQsqaUBKTNV-1" source="gckPt2nkg22Qsa5NMjUD-37" target="gckPt2nkg22Qsa5NMjUD-30">
          <mxGeometry relative="1" as="geometry" />
        </mxCell>
        <mxCell id="gckPt2nkg22Qsa5NMjUD-37" value="根据当前movePos点，计算出移动的距离moveStep" style="rounded=1;whiteSpace=wrap;html=1;" vertex="1" parent="WIyWlLk6GJQsqaUBKTNV-1">
          <mxGeometry x="165" y="380" width="110" height="60" as="geometry" />
        </mxCell>
        <mxCell id="gckPt2nkg22Qsa5NMjUD-91" value="" style="edgeStyle=orthogonalEdgeStyle;rounded=0;orthogonalLoop=1;jettySize=auto;html=1;" edge="1" parent="WIyWlLk6GJQsqaUBKTNV-1" source="gckPt2nkg22Qsa5NMjUD-49" target="gckPt2nkg22Qsa5NMjUD-51">
          <mxGeometry relative="1" as="geometry" />
        </mxCell>
        <mxCell id="gckPt2nkg22Qsa5NMjUD-49" value="寻找终点" style="rounded=1;whiteSpace=wrap;html=1;" vertex="1" parent="WIyWlLk6GJQsqaUBKTNV-1">
          <mxGeometry x="620" y="415" width="122.5" height="50" as="geometry" />
        </mxCell>
        <mxCell id="gckPt2nkg22Qsa5NMjUD-81" value="" style="edgeStyle=orthogonalEdgeStyle;rounded=0;orthogonalLoop=1;jettySize=auto;html=1;" edge="1" parent="WIyWlLk6GJQsqaUBKTNV-1" source="gckPt2nkg22Qsa5NMjUD-51" target="gckPt2nkg22Qsa5NMjUD-56">
          <mxGeometry relative="1" as="geometry" />
        </mxCell>
        <mxCell id="gckPt2nkg22Qsa5NMjUD-83" value="无" style="edgeLabel;html=1;align=center;verticalAlign=middle;resizable=0;points=[];" vertex="1" connectable="0" parent="gckPt2nkg22Qsa5NMjUD-81">
          <mxGeometry x="-0.16" y="-2" relative="1" as="geometry">
            <mxPoint as="offset" />
          </mxGeometry>
        </mxCell>
        <mxCell id="gckPt2nkg22Qsa5NMjUD-86" value="" style="edgeStyle=orthogonalEdgeStyle;rounded=0;orthogonalLoop=1;jettySize=auto;html=1;" edge="1" parent="WIyWlLk6GJQsqaUBKTNV-1" source="gckPt2nkg22Qsa5NMjUD-51" target="gckPt2nkg22Qsa5NMjUD-85">
          <mxGeometry relative="1" as="geometry" />
        </mxCell>
        <mxCell id="gckPt2nkg22Qsa5NMjUD-87" value="是" style="edgeLabel;html=1;align=center;verticalAlign=middle;resizable=0;points=[];" vertex="1" connectable="0" parent="gckPt2nkg22Qsa5NMjUD-86">
          <mxGeometry x="-0.64" y="1" relative="1" as="geometry">
            <mxPoint as="offset" />
          </mxGeometry>
        </mxCell>
        <mxCell id="gckPt2nkg22Qsa5NMjUD-51" value="有无终点" style="rhombus;whiteSpace=wrap;html=1;" vertex="1" parent="WIyWlLk6GJQsqaUBKTNV-1">
          <mxGeometry x="642.5" y="500" width="80" height="80" as="geometry" />
        </mxCell>
        <mxCell id="gckPt2nkg22Qsa5NMjUD-58" value="" style="edgeStyle=orthogonalEdgeStyle;rounded=0;orthogonalLoop=1;jettySize=auto;html=1;" edge="1" parent="WIyWlLk6GJQsqaUBKTNV-1" source="gckPt2nkg22Qsa5NMjUD-56" target="gckPt2nkg22Qsa5NMjUD-57">
          <mxGeometry relative="1" as="geometry" />
        </mxCell>
        <mxCell id="gckPt2nkg22Qsa5NMjUD-61" value="是" style="edgeLabel;html=1;align=center;verticalAlign=middle;resizable=0;points=[];" vertex="1" connectable="0" parent="gckPt2nkg22Qsa5NMjUD-58">
          <mxGeometry x="-0.1" y="1" relative="1" as="geometry">
            <mxPoint as="offset" />
          </mxGeometry>
        </mxCell>
        <mxCell id="gckPt2nkg22Qsa5NMjUD-82" value="" style="edgeStyle=orthogonalEdgeStyle;rounded=0;orthogonalLoop=1;jettySize=auto;html=1;" edge="1" parent="WIyWlLk6GJQsqaUBKTNV-1" source="gckPt2nkg22Qsa5NMjUD-56" target="gckPt2nkg22Qsa5NMjUD-59">
          <mxGeometry relative="1" as="geometry" />
        </mxCell>
        <mxCell id="gckPt2nkg22Qsa5NMjUD-84" value="否" style="edgeLabel;html=1;align=center;verticalAlign=middle;resizable=0;points=[];" vertex="1" connectable="0" parent="gckPt2nkg22Qsa5NMjUD-82">
          <mxGeometry x="-0.48" y="4" relative="1" as="geometry">
            <mxPoint as="offset" />
          </mxGeometry>
        </mxCell>
        <mxCell id="gckPt2nkg22Qsa5NMjUD-56" value="是否还有笔画" style="rhombus;whiteSpace=wrap;html=1;" vertex="1" parent="WIyWlLk6GJQsqaUBKTNV-1">
          <mxGeometry x="642.5" y="610" width="80" height="80" as="geometry" />
        </mxCell>
        <mxCell id="gckPt2nkg22Qsa5NMjUD-57" value="继续下一笔画" style="rounded=1;whiteSpace=wrap;html=1;" vertex="1" parent="WIyWlLk6GJQsqaUBKTNV-1">
          <mxGeometry x="500" y="625" width="110" height="50" as="geometry" />
        </mxCell>
        <mxCell id="gckPt2nkg22Qsa5NMjUD-59" value="游戏结束" style="rounded=1;whiteSpace=wrap;html=1;" vertex="1" parent="WIyWlLk6GJQsqaUBKTNV-1">
          <mxGeometry x="632.5" y="745" width="100" height="45" as="geometry" />
        </mxCell>
        <mxCell id="gckPt2nkg22Qsa5NMjUD-70" value="" style="edgeStyle=orthogonalEdgeStyle;rounded=0;orthogonalLoop=1;jettySize=auto;html=1;" edge="1" parent="WIyWlLk6GJQsqaUBKTNV-1" source="gckPt2nkg22Qsa5NMjUD-66" target="gckPt2nkg22Qsa5NMjUD-69">
          <mxGeometry relative="1" as="geometry" />
        </mxCell>
        <mxCell id="gckPt2nkg22Qsa5NMjUD-76" value="是" style="edgeLabel;html=1;align=center;verticalAlign=middle;resizable=0;points=[];" vertex="1" connectable="0" parent="gckPt2nkg22Qsa5NMjUD-70">
          <mxGeometry x="-0.36" y="2" relative="1" as="geometry">
            <mxPoint as="offset" />
          </mxGeometry>
        </mxCell>
        <mxCell id="gckPt2nkg22Qsa5NMjUD-73" value="" style="edgeStyle=orthogonalEdgeStyle;rounded=0;orthogonalLoop=1;jettySize=auto;html=1;" edge="1" parent="WIyWlLk6GJQsqaUBKTNV-1" source="gckPt2nkg22Qsa5NMjUD-66" target="gckPt2nkg22Qsa5NMjUD-72">
          <mxGeometry relative="1" as="geometry" />
        </mxCell>
        <mxCell id="gckPt2nkg22Qsa5NMjUD-74" value="否" style="edgeLabel;html=1;align=center;verticalAlign=middle;resizable=0;points=[];" vertex="1" connectable="0" parent="gckPt2nkg22Qsa5NMjUD-73">
          <mxGeometry x="-0.4526" y="-2" relative="1" as="geometry">
            <mxPoint as="offset" />
          </mxGeometry>
        </mxCell>
        <mxCell id="gckPt2nkg22Qsa5NMjUD-66" value="moveStep大于distance" style="rhombus;whiteSpace=wrap;html=1;" vertex="1" parent="WIyWlLk6GJQsqaUBKTNV-1">
          <mxGeometry x="435" y="270" width="110" height="90" as="geometry" />
        </mxCell>
        <mxCell id="gckPt2nkg22Qsa5NMjUD-88" style="edgeStyle=orthogonalEdgeStyle;rounded=0;orthogonalLoop=1;jettySize=auto;html=1;entryX=0.5;entryY=0;entryDx=0;entryDy=0;" edge="1" parent="WIyWlLk6GJQsqaUBKTNV-1" source="gckPt2nkg22Qsa5NMjUD-69" target="gckPt2nkg22Qsa5NMjUD-49">
          <mxGeometry relative="1" as="geometry" />
        </mxCell>
        <mxCell id="gckPt2nkg22Qsa5NMjUD-69" value="设置终点为移动点，并移动绘制，最后设置终点为起点" style="rounded=1;whiteSpace=wrap;html=1;" vertex="1" parent="WIyWlLk6GJQsqaUBKTNV-1">
          <mxGeometry x="620" y="285" width="120" height="60" as="geometry" />
        </mxCell>
        <mxCell id="gckPt2nkg22Qsa5NMjUD-77" value="" style="edgeStyle=orthogonalEdgeStyle;rounded=0;orthogonalLoop=1;jettySize=auto;html=1;" edge="1" parent="WIyWlLk6GJQsqaUBKTNV-1" source="gckPt2nkg22Qsa5NMjUD-72" target="gckPt2nkg22Qsa5NMjUD-49">
          <mxGeometry relative="1" as="geometry" />
        </mxCell>
        <mxCell id="gckPt2nkg22Qsa5NMjUD-72" value="&lt;span style=&quot;&quot;&gt;移动绘制，并将movePos设置为起点&lt;/span&gt;" style="rounded=1;whiteSpace=wrap;html=1;" vertex="1" parent="WIyWlLk6GJQsqaUBKTNV-1">
          <mxGeometry x="430" y="410" width="120" height="60" as="geometry" />
        </mxCell>
        <mxCell id="gckPt2nkg22Qsa5NMjUD-85" value="设置终点，继续当前笔画绘制" style="rounded=1;whiteSpace=wrap;html=1;" vertex="1" parent="WIyWlLk6GJQsqaUBKTNV-1">
          <mxGeometry x="500" y="515" width="95" height="50" as="geometry" />
        </mxCell>
      </root>
    </mxGraphModel>
  </diagram>
</mxfile>
